<?xml version="1.0" encoding="utf-8"?>
<!-- Generator: Adobe Illustrator 28.0.0, SVG Export Plug-In . SVG Version: 6.00 Build 0)  -->
<svg version="1.0" id="Layer_1" xmlns="http://www.w3.org/2000/svg" xmlns:xlink="http://www.w3.org/1999/xlink" x="0px" y="0px"
	 viewBox="0 0 1120.93 762.88" style="enable-background:new 0 0 1120.93 762.88;" xml:space="preserve">
<style type="text/css">
	.st0{fill-rule:evenodd;clip-rule:evenodd;}
	.st1{fill-rule:evenodd;clip-rule:evenodd;fill:#A238FF;}
</style>
<path class="st0" d="M417.95,310.28h54.96c34.03,0,58.09,22.64,58.09,54.82s-24.06,54.82-58.09,54.82h-54.96V310.28z M460.67,390.31
	h9.97c10.68,0,16.38-7.12,16.38-25.2c0-18.08-5.7-25.2-16.38-25.2h-9.97V390.31z M627.83,419.92h-90.28V310.28h90.28v29.62h-47.7
	v12.67h44.85v24.21h-44.85v13.53h47.7V419.92z M728.36,419.92h-90.27V310.28h90.27v29.62h-47.7v12.67h44.85v24.21h-44.85v13.53h47.7
	V419.92z M1056,419.92c-6.15-16.76-14.76-34.65-26.33-54.7c13.54-3.97,21.63-12.5,21.63-25.6c0-19.93-18.37-29.33-47.42-29.33h-59.8
	v109.64h42.72v-45.35c9.49,15.98,16.48,31.07,21.07,45.35L1056,419.92L1056,419.92z M986.8,359.27V339.9h14.81
	c6.27,0,9.83,3.42,9.83,9.68c0,6.26-3.56,9.68-9.83,9.68C1001.61,359.27,986.8,359.27,986.8,359.27z M933.83,419.92h-90.28V310.28
	h90.28v29.62h-47.7v12.67h44.85v24.21h-44.85v13.53h47.7V419.92z M738.61,339.9h44.08c-18.29,14.96-33.34,31.91-44.93,50.41v29.62
	h96.97v-29.62h-48.47c11.11-16.16,26.62-32.25,48.47-50.41v-29.62h-96.11V339.9z"/>
<path class="st1" d="M297.81,284.97c2.57-14.89,6.34-24.25,10.52-24.27h0.01c7.79,0.03,14.1,32.5,14.1,72.59
	c0,40.09-6.32,72.59-14.12,72.59c-3.2,0-6.14-5.52-8.52-14.77c-3.75,33.85-11.54,57.12-20.55,57.12c-6.97,0-13.23-13.98-17.43-36.02
	c-2.87,41.92-10.09,71.67-18.53,71.67c-5.3,0-10.13-11.79-13.7-30.98c-4.3,39.62-14.23,67.38-25.81,67.38s-21.53-27.75-25.81-67.38
	c-3.55,19.19-8.38,30.98-13.7,30.98c-8.44,0-15.64-29.74-18.53-71.67c-4.2,22.04-10.44,36.02-17.43,36.02
	c-9,0-16.8-23.26-20.55-57.12c-2.36,9.27-5.32,14.76-8.52,14.76c-7.79,0-14.12-32.5-14.12-72.59c0-40.09,6.32-72.59,14.12-72.59
	c4.18,0,7.93,9.39,10.52,24.27c4.16-25.67,10.91-42.36,18.55-42.36c9.07,0,16.92,23.6,20.64,57.87
	c3.64-24.94,9.15-40.84,15.33-40.84c8.66,0,16.02,31.27,18.75,74.9c5.13-22.37,12.55-36.4,20.77-36.4c8.22,0,15.64,14.04,20.76,36.4
	c2.74-43.62,10.09-74.9,18.75-74.9c6.17,0,11.68,15.9,15.33,40.84c3.71-34.27,11.57-57.87,20.63-57.87
	C286.87,242.61,293.65,259.3,297.81,284.97z M64.92,326.15c0-17.92,3.58-32.45,8.01-32.45c4.42,0,8.01,14.53,8.01,32.45
	c0,17.92-3.58,32.45-8.01,32.45C68.51,358.6,64.92,344.07,64.92,326.15z M326.58,326.15c0-17.92,3.58-32.45,8.01-32.45
	c4.42,0,8.01,14.53,8.01,32.45c0,17.92-3.58,32.45-8.01,32.45C330.16,358.6,326.58,344.07,326.58,326.15z"/>
</svg>
